# xmcd CD database file
#
# Track frame offsets:
#	150
#	22047
#	44700
#
# Disc length: 874 seconds
#
# Revision: 0
# Processed by: cddbd v1.5PL3 Copyright (c) Steve Scherf et al.
# Submitted via: CDex 1.50
#
DISCID=24036803
DTITLE=Ｓｏｍｅｔｈｉｎｇ　ＥＬｓｅ - びいだま
DYEAR=1900
DGENRE=Pop
TTITLE0=びいだま
TTITLE1=桜雨〜あの日の雨と今日の雨II〜
TTITLE2=思い出であれ、後悔であれ
EXTD=
EXTT0=
EXTT1=
EXTT2=
PLAYORDER=
